Coordinates
version=1
nRows=42
nColumns=11
inDegrees=yes

Units are S.I. units (second, meters, Newtons, ...)
If the header above contains a line with 'inDegrees', this indicates whether rotational values are in degrees (yes) or radians (no).

endheader
time	pelvis_tilt	pelvis_tx	pelvis_ty	hip_flexion_l	hip_flexion_r	knee_angle_l	knee_angle_r	ankle_angle_l	ankle_angle_r	lumbar_extension
      3.37000000	     -1.73541410	      1.06727773	      0.92235403	      9.89804136	     26.64779073	    -29.01254641	    -47.34257855	     15.06065320	     -7.42136081	     -4.94084970
      3.38000000	     -1.02668526	      1.07815891	      0.92153808	      8.45040691	     26.83082314	    -29.20037477	    -45.67514590	     15.77759604	     -7.31320373	     -5.78484054
      3.39000000	     -0.30403721	      1.08919698	      0.92052707	      7.02662440	     26.83962173	    -29.46344780	    -43.73031763	     16.44685753	     -7.13473856	     -6.62474038
      3.40000000	      0.45871741	      1.10035066	      0.91939101	      5.56800569	     26.67166347	    -29.75223172	    -41.53903015	     17.12797714	     -7.08474158	     -7.49131784
      3.41000000	      1.22462156	      1.11164637	      0.91810459	      4.12261855	     26.34273316	    -30.10127825	    -39.10759543	     17.78457184	     -6.98585079	     -8.34578970
      3.42000000	      2.02278572	      1.12323702	      0.91668583	      2.64685628	     25.84243680	    -30.51825712	    -36.49772758	     18.47774434	     -6.88939822	     -9.19475161
      3.43000000	      2.79556063	      1.13500021	      0.91506632	      1.19980275	     25.19618477	    -30.94668643	    -33.63149822	     19.02409602	     -6.84971493	     -9.99625723
      3.44000000	      3.44663156	      1.14673740	      0.91321940	     -0.04377428	     24.56873427	    -31.53122054	    -30.61376556	     19.60943033	     -6.68666737	    -10.65873784
      3.45000000	      4.08380472	      1.15877143	      0.91136113	     -1.32650078	     23.81812002	    -32.05190605	    -27.52457334	     20.10258609	     -6.59168998	    -11.27790510
      3.46000000	      4.58296792	      1.17089655	      0.90933537	     -2.43541162	     23.14608065	    -32.59122567	    -24.49270313	     20.39746176	     -6.45535643	    -11.72518781
      3.47000000	      4.99443833	      1.18335019	      0.90730654	     -3.49307171	     22.47401122	    -33.11339563	    -21.59936614	     20.66944914	     -6.26461136	    -12.03511564
      3.48000000	      5.35923190	      1.19616336	      0.90548917	     -4.53734198	     21.81240654	    -33.55094868	    -18.97269387	     20.73535390	     -6.12453384	    -12.23892578
      3.49000000	      5.55322898	      1.20892610	      0.90344317	     -5.32347772	     21.35611216	    -34.13923271	    -16.78317283	     20.64460302	     -6.09416275	    -12.24717873
      3.50000000	      5.68148056	      1.22210738	      0.90161870	     -6.05167805	     20.97140002	    -34.69176141	    -15.10351401	     20.31155133	     -6.21937620	    -12.14058952
      3.51000000	      5.66778086	      1.23545694	      0.89970342	     -6.55492697	     20.82373199	    -35.39141583	    -14.10550181	     19.82272924	     -6.36014730	    -11.84343743
      3.52000000	      5.51976574	      1.24887836	      0.89778248	     -6.82874551	     20.87934015	    -36.19946335	    -13.79281779	     19.21515125	     -6.51475447	    -11.39054775
      3.53000000	      5.33590166	      1.26258181	      0.89592904	     -7.02652057	     20.86344869	    -37.07959769	    -13.79933068	     18.29082487	     -6.66535819	    -10.86717245
      3.54000000	      5.18293889	      1.27672468	      0.89416946	     -7.25695157	     20.82926476	    -37.96113424	    -14.37700036	     17.05971968	     -6.66943852	    -10.32018601
      3.55000000	      5.04530938	      1.29123071	      0.89250518	     -7.49254055	     20.63939481	    -38.85311401	    -15.17154264	     15.79667486	     -6.66206268	     -9.75725233
      3.56000000	      4.75783053	      1.30573217	      0.89108177	     -7.47898556	     20.61133513	    -39.81538121	    -16.15956839	     14.04990555	     -8.31452970	     -9.03962357
      3.57000000	      4.16218005	      1.31974342	      0.88987069	     -6.98619047	     21.34732592	    -40.88515482	    -18.10741097	     12.10286699	     -8.06036393	     -8.04354114
      3.58000000	      3.57950631	      1.33362133	      0.88885317	     -6.31167955	     22.51342097	    -42.20830825	    -20.80981229	      9.50339388	     -6.57499801	     -7.08437198
      3.59000000	      3.19321822	      1.34774620	      0.88834857	     -5.69297575	     23.27753107	    -43.63798500	    -23.14148096	      6.50467786	     -6.10009339	     -6.32528407
      3.60000000	      2.99664064	      1.36173128	      0.88839226	     -5.08674379	     23.51476726	    -45.18488005	    -24.92509277	      2.99429755	     -5.20792038	     -5.84125440
      3.61000000	      2.94471769	      1.37570841	      0.88870334	     -4.47936650	     23.33946251	    -46.76774241	    -26.35930076	     -0.78269155	     -3.83684108	     -5.52696357
      3.62000000	      2.91715879	      1.38939961	      0.88910910	     -3.77580807	     23.03557288	    -48.33912600	    -27.52959401	     -4.91981094	     -2.46090147	     -5.30179627
      3.63000000	      2.81935655	      1.40282943	      0.88945508	     -2.83864757	     22.66467493	    -49.99002491	    -28.45076730	     -8.95018435	     -1.16084926	     -5.04646658
      3.64000000	      2.63123006	      1.41588370	      0.88975351	     -1.68532027	     22.38476219	    -51.73789799	    -29.35502085	    -12.82954722	      0.13632636	     -4.74150648
      3.65000000	      2.38582131	      1.42859534	      0.89012416	     -0.31819327	     22.04404453	    -53.62592399	    -29.99749590	    -16.58745150	      1.35901549	     -4.41057132
      3.66000000	      2.08659192	      1.44090031	      0.89064472	      1.28133224	     21.70400511	    -55.61112915	    -30.46062040	    -20.02908481	      2.40188115	     -4.07306015
      3.67000000	      1.73681968	      1.45279265	      0.89128354	      3.07435132	     21.28337620	    -57.73498983	    -30.62990562	    -21.78085040	      3.30243867	     -3.70765207
      3.68000000	      1.39390209	      1.46439878	      0.89215293	      4.91866985	     20.75803290	    -59.77919571	    -30.57153276	    -21.19571966	      3.95910360	     -3.37089142
      3.69000000	      1.16277108	      1.47625554	      0.89357219	      6.58601636	     19.93625023	    -61.48683123	    -30.21932078	    -19.10931152	      4.59165752	     -3.11214455
      3.70000000	      0.80351048	      1.48748580	      0.89502462	      8.51150196	     19.22368832	    -62.97618048	    -29.71975706	    -16.53890074	      5.04948156	     -2.76793544
      3.71000000	      0.45519827	      1.49853649	      0.89677306	     10.42553166	     18.39384441	    -64.05689712	    -28.98508016	    -14.30808548	      5.37479585	     -2.43578594
      3.72000000	      0.15604479	      1.50950222	      0.89880648	     12.27572154	     17.44159963	    -64.82341787	    -28.09181937	    -12.27917234	      5.48388456	     -2.14908443
      3.73000000	     -0.06370800	      1.52038097	      0.90101608	     14.00965862	     16.39972680	    -65.28106290	    -27.18207130	    -10.47202968	      5.56921181	     -1.94921099
      3.74000000	     -0.29289067	      1.53107082	      0.90321451	     15.77510665	     15.35725676	    -65.52035048	    -26.21435637	     -9.04927731	      5.49702967	     -1.75816716
      3.75000000	     -0.45590706	      1.54168592	      0.90549770	     17.42517461	     14.24331346	    -65.55788223	    -25.19292124	     -7.71292389	      5.33271284	     -1.65045041
      3.76000000	     -0.55192487	      1.55213963	      0.90777777	     18.98667320	     13.10810571	    -65.33934558	    -24.23674565	     -6.70368435	      5.10464735	     -1.63673046
      3.77000000	     -0.59387672	      1.56239485	      0.90997216	     20.45495140	     11.97683130	    -64.96217235	    -23.36741398	     -5.76791628	      4.83621168	     -1.71202279
      3.78000000	     -0.62148935	      1.57257884	      0.91203522	     21.87340584	     10.90436707	    -64.36549897	    -22.59350748	     -4.88669349	      4.60645797	     -1.81072600
